<svg width="20" height="21" viewBox="0 0 20 21" fill="none" xmlns="http://www.w3.org/2000/svg">
<path d="M7.59 11.9987H1C0.734784 11.9987 0.48043 11.8934 0.292893 11.7058C0.105357 11.5183 0 11.2639 0 10.9987C0 10.7335 0.105357 10.4791 0.292893 10.2916C0.48043 10.1041 0.734784 9.99872 1 9.99872H7.59L7.29 9.70872C7.1017 9.52041 6.99591 9.26502 6.99591 8.99872C6.99591 8.73242 7.1017 8.47702 7.29 8.28872C7.4783 8.10041 7.7337 7.99463 8 7.99463C8.2663 7.99463 8.5217 8.10041 8.71 8.28872L10.71 10.2887C10.8037 10.3817 10.8781 10.4923 10.9289 10.6141C10.9797 10.736 11.0058 10.8667 11.0058 10.9987C11.0058 11.1307 10.9797 11.2614 10.9289 11.3833C10.8781 11.5052 10.8037 11.6158 10.71 11.7087L8.71 13.7087C8.61704 13.8024 8.50644 13.8768 8.38458 13.9276C8.26272 13.9784 8.13201 14.0045 8 14.0045C7.86799 14.0045 7.73728 13.9784 7.61542 13.9276C7.49356 13.8768 7.38296 13.8024 7.29 13.7087C7.19627 13.6158 7.12188 13.5052 7.07111 13.3833C7.02034 13.2614 6.9942 13.1307 6.9942 12.9987C6.9942 12.8667 7.02034 12.736 7.07111 12.6141C7.12188 12.4923 7.19627 12.3817 7.29 12.2887L7.59 11.9987ZM17 0.998718H7C6.20435 0.998718 5.44129 1.31479 4.87868 1.8774C4.31607 2.44001 4 3.20307 4 3.99872V6.99872C4 7.26393 4.10536 7.51829 4.29289 7.70582C4.48043 7.89336 4.73478 7.99872 5 7.99872C5.26522 7.99872 5.51957 7.89336 5.70711 7.70582C5.89464 7.51829 6 7.26393 6 6.99872V3.99872C6 3.7335 6.10536 3.47915 6.29289 3.29161C6.48043 3.10408 6.73478 2.99872 7 2.99872H17C17.2652 2.99872 17.5196 3.10408 17.7071 3.29161C17.8946 3.47915 18 3.7335 18 3.99872V17.9987C18 18.2639 17.8946 18.5183 17.7071 18.7058C17.5196 18.8934 17.2652 18.9987 17 18.9987H7C6.73478 18.9987 6.48043 18.8934 6.29289 18.7058C6.10536 18.5183 6 18.2639 6 17.9987V14.9987C6 14.7335 5.89464 14.4791 5.70711 14.2916C5.51957 14.1041 5.26522 13.9987 5 13.9987C4.73478 13.9987 4.48043 14.1041 4.29289 14.2916C4.10536 14.4791 4 14.7335 4 14.9987V17.9987C4 18.7944 4.31607 19.5574 4.87868 20.12C5.44129 20.6826 6.20435 20.9987 7 20.9987H17C17.7956 20.9987 18.5587 20.6826 19.1213 20.12C19.6839 19.5574 20 18.7944 20 17.9987V3.99872C20 3.20307 19.6839 2.44001 19.1213 1.8774C18.5587 1.31479 17.7956 0.998718 17 0.998718Z" fill="#231F20"/>
</svg>
