<svg width="24" height="25" viewBox="0 0 24 25" fill="none" xmlns="http://www.w3.org/2000/svg">
<path fill-rule="evenodd" clip-rule="evenodd" d="M12.293 4.29535C12.4805 4.10788 12.7348 4.00256 13 4.00256C13.2652 4.00256 13.5195 4.10788 13.707 4.29535L20.707 11.2954C20.8945 11.4829 20.9998 11.7372 20.9998 12.0023C20.9998 12.2675 20.8945 12.5218 20.707 12.7093L13.707 19.7094C13.5184 19.8915 13.2658 19.9923 13.0036 19.99C12.7414 19.9877 12.4906 19.8826 12.3052 19.6972C12.1198 19.5118 12.0146 19.2609 12.0123 18.9988C12.01 18.7366 12.1108 18.484 12.293 18.2953L17.586 13.0023H4C3.73478 13.0023 3.48043 12.897 3.29289 12.7095C3.10536 12.5219 3 12.2676 3 12.0023C3 11.7371 3.10536 11.4828 3.29289 11.2952C3.48043 11.1077 3.73478 11.0023 4 11.0023H17.586L12.293 5.70935C12.1055 5.52182 12.0002 5.26751 12.0002 5.00235C12.0002 4.73719 12.1055 4.48288 12.293 4.29535Z" fill="black"/>
</svg>
